<svg xmlns="http://www.w3.org/2000/svg" width="400" height="220" viewBox="0 0 400 220">
  <defs>
    <linearGradient id="caseGrad3" x1="0%" y1="0%" x2="100%" y2="100%">
      <stop offset="0%" style="stop-color:#059669"/>
      <stop offset="50%" style="stop-color:#10b981"/>
      <stop offset="100%" style="stop-color:#34d399"/>
    </linearGradient>
  </defs>
  <rect width="400" height="220" fill="url(#caseGrad3)"/>
  
  <!-- Abstract shapes -->
  <circle cx="60" cy="180" r="70" fill="white" opacity="0.05"/>
  <circle cx="340" cy="40" r="60" fill="white" opacity="0.05"/>
  
  <!-- Shield / security icon -->
  <g transform="translate(150, 50)">
    <path d="M50 10 L90 20 L90 60 Q90 90 50 100 Q10 90 10 60 L10 20 Z" fill="white" opacity="0.15"/>
    <path d="M50 25 L80 32 L80 60 Q80 80 50 88 Q20 80 20 60 L20 32 Z" fill="white" opacity="0.25"/>
    <path d="M45 50 L50 55 L65 40" stroke="white" stroke-width="4" fill="none" stroke-linecap="round" stroke-linejoin="round"/>
  </g>
  
  <!-- Building / institution -->
  <g transform="translate(80, 80)">
    <rect x="0" y="40" width="40" height="60" rx="2" fill="white" opacity="0.1"/>
    <rect x="50" y="20" width="40" height="80" rx="2" fill="white" opacity="0.15"/>
    <rect x="100" y="50" width="40" height="50" rx="2" fill="white" opacity="0.1"/>
    <rect x="150" y="30" width="40" height="70" rx="2" fill="white" opacity="0.15"/>
    <rect x="200" y="10" width="40" height="90" rx="2" fill="white" opacity="0.2"/>
    <rect x="250" y="40" width="40" height="60" rx="2" fill="white" opacity="0.1"/>
    <rect x="300" y="25" width="40" height="75" rx="2" fill="white" opacity="0.15"/>
  </g>
  
  <!-- Checkmarks -->
  <g transform="translate(120, 160)">
    <circle cx="30" cy="20" r="15" fill="white" opacity="0.2"/>
    <path d="M22 20 L28 26 L38 14" stroke="white" stroke-width="3" fill="none" stroke-linecap="round" stroke-linejoin="round"/>
    
    <circle cx="100" cy="20" r="15" fill="white" opacity="0.25"/>
    <path d="M92 20 L98 26 L108 14" stroke="white" stroke-width="3" fill="none" stroke-linecap="round" stroke-linejoin="round"/>
    
    <circle cx="170" cy="20" r="15" fill="white" opacity="0.3"/>
    <path d="M162 20 L168 26 L178 14" stroke="white" stroke-width="3" fill="none" stroke-linecap="round" stroke-linejoin="round"/>
  </g>
  
  <!-- Label -->
  <text x="200" y="200" text-anchor="middle" font-family="system-ui, sans-serif" font-size="14" fill="white" opacity="0.8">金融行业解决方案</text>
</svg>
